# Blender 3.5.1
# www.blender.org
mtllib nave.mtl
o Cube
v 0.200922 1.606156 -0.525429
v 1.000000 -1.000000 -1.000000
v 0.903489 1.652054 0.377896
v 1.946449 -1.946449 1.000000
v -0.200922 1.606156 -0.525429
v -1.000000 -1.000000 -1.000000
v -0.903489 1.652054 0.377896
v -1.946449 -1.946449 1.000000
v 0.241225 -0.241225 -9.495785
v -0.241225 -0.241225 -9.495785
v 0.241225 0.241225 -9.495785
v -0.241225 0.241225 -9.495785
v -1.946449 -1.946449 7.979048
v -1.946449 1.946449 7.979048
v 1.946449 1.946449 7.979048
v 1.946449 -1.946449 7.979048
v 5.934410 1.946449 1.000000
v 5.934410 -1.946449 1.000000
v 5.934410 1.946449 7.979048
v 5.934410 -1.946449 7.979048
v -6.422649 -1.946449 1.000000
v -6.422649 1.946449 1.000000
v -6.422649 -1.946449 7.979048
v -6.422649 1.946449 7.979048
v 3.717626 0.217492 -12.564601
v 3.717626 -0.217492 -12.564601
v 4.163232 0.217492 -12.564601
v 4.163232 -0.217492 -12.564601
v -3.984540 -0.173945 -12.419523
v -3.984540 0.173945 -12.419523
v -4.384557 -0.173945 -12.419523
v -4.384557 0.173945 -12.419523
v 3.579846 1.673224 1.000000
v -3.579846 1.673224 1.000000
v 3.579846 3.925809 1.000000
v -3.579846 3.925809 1.000000
v 6.028998 4.696362 7.979048
v -6.028998 4.696362 7.979048
v 1.946449 1.946449 1.000000
v -1.946449 1.946449 1.000000
v 1.000000 1.000000 -1.000000
v -1.000000 1.000000 -1.000000
v 0.903489 2.357975 0.043837
v -0.903489 2.357975 0.043837
v 0.200922 1.688554 -0.564422
v -0.200922 1.688554 -0.564422
v 3.579846 3.925809 1.000000
v -3.579846 3.925809 1.000000
v 6.028998 0.902671 7.979048
v -6.028998 0.902671 7.979048
v 6.028998 4.696362 7.979048
v -6.028998 4.696362 7.979048
v 6.028998 0.902671 7.979048
v -6.028998 0.902671 7.979048
v 6.028998 4.696362 7.979048
v -6.028998 4.696362 7.979048
v -1.946449 -1.946449 12.922790
v -1.946449 1.946449 12.922790
v 1.946449 1.946449 12.922790
v 1.946449 -1.946449 12.922790
v 5.934410 1.946449 12.922790
v 5.934410 -1.946449 12.922790
v -6.422649 -1.946449 12.922790
v -6.422649 1.946449 12.922790
v 6.028998 0.902671 12.922790
v -6.028998 0.902671 12.922790
v 6.028998 0.902671 12.922790
v -6.028998 0.902671 12.922790
v 6.028998 4.696362 12.922790
v -6.028998 4.696362 12.922790
v 5.282443 1.649227 12.922790
v -5.282443 1.649227 12.922790
v 5.282443 3.949806 12.922790
v -5.282443 3.949806 12.922790
v -0.545829 1.294395 -0.377896
v 0.545829 1.294395 -0.377896
v -0.545829 2.000316 -0.711955
v 0.545829 2.000316 -0.711955
v -0.545829 1.294395 -0.377896
v 0.545829 1.294395 -0.377896
v -0.545829 2.000316 -0.711955
v 0.545829 2.000316 -0.711955
v -0.545829 1.294395 -0.377896
v 0.545829 1.294395 -0.377896
v -0.545829 2.000316 -0.711955
v 0.545829 2.000316 -0.711955
v -0.545829 1.294395 -0.377896
v 0.545829 1.294395 -0.377896
v -0.545829 2.000316 -0.711955
v 0.545829 2.000316 -0.711955
v -0.200922 1.606156 -0.525429
v 0.200922 1.606156 -0.525429
v -0.200922 1.688554 -0.564422
v 0.200922 1.688554 -0.564422
v -0.200922 1.537902 -0.669661
v 0.200922 1.537902 -0.669661
v -0.200922 1.620300 -0.708654
v 0.200922 1.620300 -0.708654
v 0.903489 2.051898 1.222833
v -0.903489 2.051898 1.222833
v 0.903489 2.757819 0.888774
v -0.903489 2.757819 0.888774
vn -0.9194 -0.1682 -0.3555
vn -0.0000 -1.0000 -0.0000
vn -0.9039 -0.0000 -0.4277
vn -0.0000 -0.9039 -0.4277
vn 0.9039 -0.0000 -0.4277
vn -0.0000 0.9960 -0.0890
vn -0.0000 -0.0000 -1.0000
vn 0.9960 -0.0000 -0.0890
vn -0.9960 -0.0000 -0.0890
vn -0.0000 -0.9960 -0.0890
vn -0.2477 -0.9688 -0.0000
vn -0.0000 -0.0000 1.0000
vn 0.9916 -0.0000 -0.1295
vn 1.0000 -0.0000 -0.0000
vn -0.0000 1.0000 -0.0000
vn -1.0000 -0.0000 -0.0000
vn 0.9887 -0.0000 -0.1502
vn -0.9916 -0.0000 -0.1295
vn -0.0000 -0.9920 -0.1264
vn -0.0000 0.9920 -0.1264
vn -0.9887 -0.0000 -0.1502
vn -0.0000 0.9914 -0.1309
vn -0.0000 -0.9914 -0.1309
vn -0.9436 -0.0000 -0.3311
vn -0.2245 -0.9744 -0.0144
vn 0.2245 -0.9744 -0.0144
vn -0.0000 0.9940 -0.1097
vn 0.9436 -0.0000 -0.3311
vn -0.0000 0.9039 -0.4277
vn -0.0000 -0.9039 0.4277
vn 0.9194 -0.1682 -0.3555
vn 0.2477 -0.9688 -0.0000
vn -0.0000 -0.4277 -0.9039
vn -0.0000 0.4277 0.9039
vt 0.729468 0.577763
vt 0.375000 0.500000
vt 0.681388 0.672237
vt 0.375000 0.750000
vt 0.770532 0.577763
vt 0.375000 0.250000
vt 0.125000 0.500000
vt 0.818612 0.672237
vt 0.375000 0.000000
vt 0.125000 0.750000
vt 0.375000 0.500000
vt 0.375000 0.250000
vt 0.125000 0.500000
vt 0.625000 0.500000
vt 0.875000 0.500000
vt 0.625000 0.250000
vt 0.125000 0.750000
vt 0.875000 0.750000
vt 0.625000 0.750000
vt 0.375000 0.750000
vt 0.625000 0.750000
vt 0.375000 0.750000
vt 0.625000 0.750000
vt 0.375000 0.750000
vt 0.375000 0.000000
vt 0.125000 0.750000
vt 0.625000 0.000000
vt 0.875000 0.750000
vt 0.375000 0.000000
vt 0.125000 0.750000
vt 0.875000 0.750000
vt 0.625000 0.000000
vt 0.625000 0.750000
vt 0.375000 0.750000
vt 0.625000 0.750000
vt 0.375000 0.750000
vt 0.375000 0.000000
vt 0.125000 0.750000
vt 0.625000 0.000000
vt 0.875000 0.750000
vt 0.375000 0.000000
vt 0.125000 0.750000
vt 0.625000 0.000000
vt 0.875000 0.750000
vt 0.625000 0.750000
vt 0.875000 0.750000
vt 0.625000 0.750000
vt 0.875000 0.750000
vt 0.625000 0.750000
vt 0.875000 0.750000
vt 0.625000 0.750000
vt 0.625000 0.000000
vt 0.875000 0.750000
vt 0.625000 0.500000
vt 0.625000 0.250000
vt 0.875000 0.500000
vt 0.681388 0.672237
vt 0.818612 0.672237
vt 0.729468 0.577763
vt 0.770532 0.577763
vt 0.625000 0.750000
vt 0.875000 0.750000
vt 0.000000 0.000000
vt 0.625000 0.750000
vt 0.000000 0.000000
vt 0.875000 0.750000
vt 0.625000 1.000000
vt 0.625000 0.750000
vt 0.000000 0.000000
vt 0.875000 0.750000
vt 0.625000 1.000000
vt 0.000000 0.000000
vt 0.000000 0.000000
vt 0.625000 0.750000
vt 0.000000 0.000000
vt 0.625000 1.000000
vt 0.000000 0.000000
vt 0.625000 0.750000
vt 0.000000 0.000000
vt 0.625000 1.000000
vt 0.375000 1.000000
vt 0.125000 0.750000
vt 0.625000 1.000000
vt 0.875000 0.750000
vt 0.625000 0.750000
vt 0.375000 0.750000
vt 0.625000 0.750000
vt 0.375000 0.750000
vt 0.375000 1.000000
vt 0.375000 0.000000
vt 0.125000 0.750000
vt 0.875000 0.750000
vt 0.625000 1.000000
vt 0.625000 0.000000
vt 0.625000 0.750000
vt 0.875000 0.750000
vt 0.625000 1.000000
vt 0.000000 0.000000
vt 0.625000 0.750000
vt 0.000000 0.000000
vt 0.625000 1.000000
vt 0.000000 0.000000
vt 0.625000 0.750000
vt 0.000000 0.000000
vt 0.625000 1.000000
vt 0.625000 0.765478
vt 0.625000 0.984522
vt 0.625000 0.765478
vt 0.625000 0.984522
vt 0.805778 0.577763
vt 0.694222 0.577763
vt 0.805778 0.577763
vt 0.694222 0.577763
vt 0.805778 0.577763
vt 0.694222 0.577763
vt 0.805778 0.577763
vt 0.694222 0.577763
vt 0.805778 0.577763
vt 0.694222 0.577763
vt 0.805778 0.577763
vt 0.694222 0.577763
vt 0.805778 0.577763
vt 0.694222 0.577763
vt 0.805778 0.577763
vt 0.694222 0.577763
vt 0.770532 0.577763
vt 0.729468 0.577763
vt 0.770532 0.577763
vt 0.729468 0.577763
vt 0.770532 0.577763
vt 0.729468 0.577763
vt 0.770532 0.577763
vt 0.729468 0.577763
vt 0.681388 0.672237
vt 0.818612 0.672237
vt 0.681388 0.672237
vt 0.818612 0.672237
s 0
usemtl Material
f 75/110/1 7/8/1 44/58/1 77/112/1
f 8/10/2 13/17/2 23/30/2 21/26/2
f 8/9/3 40/52/3 42/55/3 6/6/3
f 6/7/4 2/2/4 4/4/4 8/10/4
f 2/2/5 41/54/5 39/51/5 4/4/5
f 42/56/6 41/54/6 11/14/6 12/15/6
f 10/12/7 12/16/7 11/14/7 9/11/7
f 41/54/8 2/2/8 9/11/8 11/14/8
f 6/6/9 42/55/9 12/16/9 10/12/9
f 2/2/10 6/7/10 10/13/10 9/11/10
f 15/19/11 49/64/11 65/95/11 59/85/11
f 8/10/2 4/4/2 16/20/2 13/17/2
f 39/51/12 40/53/12 34/46/12 33/45/12
f 17/21/13 18/22/13 28/36/13 27/35/13
f 18/22/14 17/21/14 19/23/14 20/24/14
f 16/20/2 4/4/2 18/22/2 20/24/2
f 39/51/15 15/19/15 19/23/15 17/21/15
f 20/24/14 19/23/14 61/87/14 62/88/14
f 22/27/16 21/25/16 23/29/16 24/32/16
f 53/73/14 55/77/14 69/102/14 67/98/14
f 40/52/17 8/9/17 29/37/17 30/39/17
f 14/18/15 40/53/15 22/28/15 24/31/15
f 26/34/7 25/33/7 27/35/7 28/36/7
f 4/4/18 39/51/18 25/33/18 26/34/18
f 18/22/19 4/4/19 26/34/19 28/36/19
f 39/51/20 17/21/20 27/35/20 25/33/20
f 30/39/7 29/37/7 31/41/7 32/43/7
f 21/25/21 22/27/21 32/43/21 31/41/21
f 22/28/22 40/53/22 30/40/22 32/44/22
f 8/10/23 21/26/23 31/42/23 29/38/23
f 34/46/24 50/66/24 52/70/24 48/62/24
f 56/79/16 54/75/16 68/100/16 70/104/16
f 15/19/25 39/51/25 33/45/25 49/64/25
f 40/53/26 14/18/26 50/66/26 34/46/26
f 35/47/27 36/48/27 38/50/27 37/49/27
f 33/45/7 34/46/7 48/62/7 47/61/7
f 49/64/28 33/45/28 47/61/28 51/68/28
f 19/23/15 15/19/15 59/85/15 61/87/15
f 3/3/29 7/8/29 40/53/29 39/51/29
f 76/111/29 3/3/29 39/51/29 41/54/29
f 7/8/29 75/110/29 42/56/29 40/53/29
f 75/110/29 76/111/29 41/54/29 42/56/29
f 78/113/29 77/112/29 44/58/29 43/57/29
f 7/8/30 3/3/30 99/134/30 100/135/30
f 5/5/16 46/60/16 97/132/16 95/130/16
f 3/3/31 76/111/31 78/113/31 43/57/31
f 36/48/15 35/47/15 47/61/15 48/62/15
f 37/49/15 38/50/15 52/70/15 51/68/15
f 38/50/15 36/48/15 48/62/15 52/70/15
f 35/47/15 37/49/15 51/68/15 47/61/15
f 53/74/15 54/76/15 50/67/15 49/64/15
f 56/80/15 55/78/15 51/68/15 52/71/15
f 54/75/15 56/79/15 52/72/15 50/65/15
f 55/77/15 53/73/15 49/63/15 51/69/15
f 14/18/15 24/31/15 64/92/15 58/84/15
f 55/78/15 56/80/15 70/105/15 69/103/15
f 16/20/2 20/24/2 62/88/2 60/86/2
f 54/76/2 53/74/2 67/99/2 68/101/2
f 60/86/12 59/85/12 58/83/12 57/81/12
f 59/85/12 60/86/12 62/88/12 61/87/12
f 57/81/12 58/83/12 64/93/12 63/89/12
f 58/83/7 59/85/7 65/95/7 66/97/7
f 72/107/12 71/106/12 73/108/12 74/109/12
f 71/106/12 72/107/12 68/101/12 67/99/12
f 74/109/12 73/108/12 69/103/12 70/105/12
f 72/107/12 74/109/12 70/105/12 68/101/12
f 73/108/12 71/106/12 67/99/12 69/103/12
f 24/32/16 23/29/16 63/90/16 64/94/16
f 50/66/32 14/18/32 58/84/32 66/96/32
f 13/17/2 16/20/2 60/86/2 57/82/2
f 49/64/15 50/67/15 66/97/15 65/95/15
f 23/30/2 13/17/2 57/82/2 63/91/2
f 79/114/15 80/115/15 76/111/15 75/110/15
f 82/117/15 81/116/15 77/112/15 78/113/15
f 81/116/15 79/114/15 75/110/15 77/112/15
f 80/115/15 82/117/15 78/113/15 76/111/15
f 83/118/15 84/119/15 80/115/15 79/114/15
f 86/121/15 85/120/15 81/116/15 82/117/15
f 85/120/15 83/118/15 79/114/15 81/116/15
f 84/119/15 86/121/15 82/117/15 80/115/15
f 87/122/15 88/123/15 84/119/15 83/118/15
f 90/125/15 89/124/15 85/120/15 86/121/15
f 89/124/15 87/122/15 83/118/15 85/120/15
f 88/123/15 90/125/15 86/121/15 84/119/15
f 91/126/33 92/127/33 88/123/33 87/122/33
f 94/129/33 93/128/33 89/124/33 90/125/33
f 93/128/33 91/126/33 87/122/33 89/124/33
f 92/127/33 94/129/33 90/125/33 88/123/33
f 5/5/15 1/1/15 92/127/15 91/126/15
f 45/59/15 46/60/15 93/128/15 94/129/15
f 46/60/15 5/5/15 91/126/15 93/128/15
f 1/1/15 45/59/15 94/129/15 92/127/15
f 96/131/33 95/130/33 97/132/33 98/133/33
f 1/1/30 5/5/30 95/130/30 96/131/30
f 45/59/14 1/1/14 96/131/14 98/133/14
f 46/60/29 45/59/29 98/133/29 97/132/29
f 100/135/34 99/134/34 101/136/34 102/137/34
f 3/3/14 43/57/14 101/136/14 99/134/14
f 44/58/16 7/8/16 100/135/16 102/137/16
f 43/57/29 44/58/29 102/137/29 101/136/29
